<svg width="211" height="104" viewBox="0 0 211 104" fill="none" xmlns="http://www.w3.org/2000/svg">
<path d="M22.6998 66.1001C32.0998 66.1001 38.8998 67.7001 43.2998 71.1001C47.4998 74.3001 49.5998 78.2001 49.5998 83.0001C49.5998 89.4001 46.5998 94.4001 40.5998 98.2001C35.3998 101.3 28.0998 102.9 18.7998 102.9H0.299805V101C3.1998 100.9 4.89979 100.5 5.59979 99.8001C6.29979 99.1001 6.59979 97.7001 6.59979 95.4001V73.9001C6.59979 71.5001 6.29979 70.0001 5.59979 69.5001C4.99979 69.0001 3.3998 68.6001 0.799805 68.3001V66.4001H22.6998V66.1001ZM16.4998 94.7001C16.4998 96.8001 16.8998 98.2001 17.6998 98.9001C18.5998 99.7001 20.1998 100.1 22.5998 100.1C27.3998 100.1 31.3998 98.8001 34.2998 95.8001C37.2998 92.8001 38.7998 88.8001 38.7998 84.0001C38.7998 78.6001 36.9998 74.6001 33.4998 71.9001C30.3998 69.6001 26.4998 68.4001 21.7998 68.4001C19.3998 68.4001 17.8998 68.7001 17.2998 69.2001C16.7998 69.6001 16.4998 70.5001 16.4998 72.3001V94.7001Z" fill="black"/>
<path d="M84.1002 103H81.5002C75.3002 103 71.2002 101.8 69.1002 99.4001C67.9002 98.1001 66.3002 96.0001 64.4002 93.1001C63.6002 91.9001 62.4002 91.5001 61.0002 91.5001H60.2002V96.6001C60.2002 98.5001 60.5002 99.6001 60.9002 100.1C61.4002 100.5 62.8002 100.9 65.0002 101V102.9H46.2002V101C48.4002 100.9 49.8002 100.6 50.3002 100.1C50.9002 99.7001 51.2002 98.5001 51.2002 96.6001V82.2001C51.2002 80.5001 50.9002 79.2001 50.4002 78.8001C49.9002 78.4001 48.6002 78.1001 46.5002 78.0001V76.1001H65.9002C70.1002 76.1001 73.3002 76.5001 75.4002 77.4001C78.0002 78.6001 79.3002 80.5001 79.3002 82.9001C79.3002 86.1001 76.9002 88.4001 72.0002 89.6001C73.5002 91.7001 75.2002 93.8001 77.2002 95.9001C79.1002 98.0001 80.5002 99.4001 81.3002 99.9001C82.3002 100.6 83.3002 101.1 84.5002 101.2L84.1002 103ZM61.8002 89.2001C64.1002 89.2001 65.8002 88.8001 67.0002 88.1001C68.6002 87.2001 69.4002 85.7001 69.4002 83.7001C69.4002 81.8001 68.7002 80.3001 67.4002 79.3001C66.2002 78.4001 64.7002 78.0001 62.8002 78.0001C61.0002 78.0001 60.2002 78.7001 60.2002 79.9001V89.2001H61.8002Z" fill="black"/>
<path d="M110.8 95.2C110.1 98.6 109.5 101 108.9 102.7H78.2002V100.8C80.7002 100.7 82.1002 100.4 82.7002 99.9C83.3002 99.5 83.6002 98.3 83.6002 96.3V82.2C83.6002 80.3 83.3002 79 82.8002 78.7C82.3002 78.3 81.0002 78 78.8002 77.9V76H107.5C107.6 78 107.8 80.2 108.1 82.7L105.5 82.8C104.8 81.3 104.1 80.3 103.5 79.6C102.6 78.7 100.7 78.3 97.7002 78.3H95.0002C94.0002 78.3 93.4002 78.4 93.2002 78.6C93.0002 78.7 92.9002 79.3 92.9002 80.1V87.6H97.0002C99.0002 87.6 100.3 87.5 100.9 87.1C101.5 86.7 101.9 85.9 102.2 84.6H104.8V93.3H102.2C101.9 92 101.5 91.2 100.9 90.9C100.3 90.5 99.0002 90.4 97.0002 90.4H92.8002V96.2C92.8002 98.5 93.2002 99.8 94.0002 100.1C94.9002 100.5 96.6002 100.6 99.3002 100.6C102.2 100.6 104.2 100.2 105.3 99.3C106.1 98.6 107.1 97.4 108.3 95.4L110.8 95.2Z" fill="black"/>
<path d="M127.1 102.6V100.7L128.4 100.6C129.4 100.5 130 100.2 130.2 99.9001C130.3 99.8001 130.3 99.6002 130.3 99.5002C130.3 99.1002 130.1 98.6001 129.8 97.9001L128.3 94.8002H116.8C116.4 95.6002 115.9 96.7002 115.3 98.2002C115.2 98.6002 115 98.9002 115 99.1002C115 99.5002 115.1 99.8001 115.3 99.9001C115.6 100.2 116.2 100.4 117.2 100.6L119 100.7V102.6H105.2V100.8C107 100.7 108.3 100.3 109.1 99.9001C110.1 99.4001 111 98.3002 111.8 96.7002L123.3 75.9001L127.5 75.4001L139.4 97.4001C140.5 99.5001 142.6 100.6 145.6 100.9V102.8H127.1V102.6ZM122.6 82.7002H122.5L118 92.0002H126.9L122.6 82.7002Z" fill="black"/>
<path d="M187.5 77.9001C185 78.0001 183.5 78.3002 183 78.8002C182.5 79.2002 182.3 80.1002 182.3 81.8002V82.3002L182.7 96.7002C182.7 98.6002 183 99.7002 183.4 100.1C183.9 100.5 185.4 100.8 187.7 101V102.9H168.8V101C171.1 100.9 172.5 100.6 173 100.1C173.5 99.7002 173.7 98.6002 173.8 96.7002L174.1 80.6002H173.8L162.1 102.3H159.7L149.4 80.7002H149.3L148.6 90.8002C148.5 93.5002 148.3 95.5002 148.3 96.8002V97.9001C148.4 98.8001 148.8 99.5001 149.5 99.9001C150.2 100.3 151.5 100.6 153.3 100.6V102.5H139.8V100.6C142.4 100.5 143.9 99.5002 144.4 97.6002C144.6 96.7002 144.9 94.5002 145.3 91.2002L146.2 82.9001C146.3 82.2001 146.3 81.6002 146.3 81.0002C146.3 79.8002 146.1 79.1002 145.7 78.7002C145.2 78.2002 143.9 77.8002 141.6 77.6002V75.7002H155.4L164.2 91.4001L173.6 75.7002H187.4V77.8002H187.5V77.9001Z" fill="black"/>
<path d="M206.4 83.9001C204.6 79.5001 201.8 77.2001 197.8 77.2001C196.4 77.2001 195.2 77.6001 194.2 78.4001C193.3 79.1001 192.9 80.0001 192.9 80.9001C192.9 82.5001 194.5 84.0001 197.8 85.1001L200 85.8001C207.1 87.9001 210.6 90.9001 210.6 94.4001C210.6 97.1001 209.2 99.4001 206.5 100.8C203.8 102.4 200.3 103.2 195.9 103.2C192.5 103.2 189.1 102.5 185.6 101.1C184.9 99.8001 184.3 97.2001 183.7 93.6001L186 93.1001C186.9 95.1001 188.2 96.9001 189.9 98.5001C192.1 100.4 194.3 101.3 196.7 101.3C198.3 101.3 199.7 100.9 200.7 100.2C201.7 99.5001 202.2 98.6001 202.2 97.4001C202.2 95.7001 200.4 94.2001 196.8 93.0001L194.2 92.1001C188 90.1001 184.9 87.4001 184.9 83.8001C184.9 81.1001 186.1 79.1001 188.6 77.5001C191.1 75.9001 194.6 75.1001 199 75.1001C201.9 75.1001 204.8 75.6001 207.6 76.6001C208 78.5001 208.3 80.8001 208.7 83.3001L206.4 83.9001Z" fill="black"/>
<path d="M101.8 50.8C104.8 50.8 107.3 51.5 109.4 53.1C111.5 54.7 112.6 56.7 112.6 59.1C112.6 61.8 111.5 63.9001 109.3 65.5001C107.2 67.1001 104.6 67.8 101.4 67.8C98.2 67.8 95.5 67 93.5 65.3C91.5 63.7 90.5 61.7001 90.5 59.2001C90.5 56.9001 91.5 54.9 93.4 53.3C95.4 51.6 98.2 50.8 101.8 50.8ZM101.1 51.8C99.4 51.8 98.1 52.4001 96.9 53.7001C95.8 55.0001 95.2 56.7 95.2 58.9C95.2 61.1 95.8 62.9001 96.9 64.5001C98.1 66.1001 99.8 66.9 101.8 66.9C103.4 66.9 104.7 66.3001 105.7 65.2001C106.8 64.0001 107.4 62.2001 107.4 60.0001C107.4 57.5001 106.8 55.6 105.6 54.1C104.6 52.5 103.1 51.8 101.1 51.8Z" fill="black"/>
<path d="M123.3 58.7001C123 58.0001 122.7 57.5 122.4 57.1C122 56.7 121.2 56.5001 119.9 56.5001H118.3C117.9 56.6001 117.6 56.6 117.6 56.6C117.5 56.7 117.5 56.8001 117.5 57.2001V61.1H119.5C120.6 61.1 121.3 61 121.6 60.9C121.9 60.7 122.2 60.3001 122.3 59.7001H123.4V63.7001H122.3C122.2 63.0001 121.9 62.6 121.7 62.4C121.4 62.3 120.7 62.2001 119.5 62.2001H117.5V64.7001C117.5 65.4001 117.6 65.9001 117.9 66.2001C118.2 66.4001 118.9 66.5 120 66.6V67.5001H111.1V66.6C112.1 66.5 112.7 66.4001 112.9 66.2001C113.1 66.0001 113.3 65.5001 113.3 64.7001V58.2001C113.3 57.3001 113.2 56.8 112.9 56.6C112.7 56.4 112.1 56.3001 111.1 56.2001V55.3H124.2C124.3 56.3 124.4 57.3 124.5 58.4L123.3 58.7001Z" fill="black"/>
<path d="M82.9998 57.8H0.299805V59.5001H82.9998V57.8Z" fill="black"/>
<path d="M210.7 57.8H128.3V59.5001H210.7V57.8Z" fill="black"/>
<path d="M51.8 25.4C49.8 25.7 48.5 26.2 48.1 26.6C47.6 27.2 47.4 28.5 47.4 30.6V35.7C47.4 38.4 47.6 40.5 47.9 41.8C40.1 43.4 34.2 44.2 30 44.2C20.9 44.2 13.6 42.2 8.20001 38.3C2.70001 34.3 0 29.1 0 22.6C0 15.5 3.09999 9.80001 9.39999 5.70001C15.1 1.90001 22.4 0 31.2 0C34.8 0 40 0.599988 46.6 1.79999C46.8 4.09999 47.2 7.69998 47.9 12.6L45 13.1C43.1 6.19998 38.1 2.70001 29.7 2.70001C24.8 2.70001 20.7 4.40001 17.4 7.70001C13.9 11.2 12.1 15.8 12.1 21.5C12.1 26.9 13.6 31.5 16.7 35.3C20.1 39.5 24.9 41.6 30.9 41.6C32.9 41.6 34.4 41.3 35.3 40.8C36.5 40.2 37.1 39 37.1 37.2V31C37.1 28.7 36.7 27.3 35.8 26.7C34.9 26.1 32.5 25.6 28.4 25.3V23.1H52V25.4H51.8Z" fill="black"/>
<path d="M99.7002 14.4999C96.6002 14.5999 94.9002 15.4999 94.6002 17.0999C94.3002 19.0999 94.1002 21.6999 94.1002 24.8999V28.4999C94.1002 34.1999 92.6002 38.2999 89.6002 40.7999C86.7002 43.0999 82.9002 44.2999 78.1002 44.2999C73.6002 44.2999 69.8002 43.4999 66.9002 41.7999C63.3002 39.6999 61.5002 36 61.5002 30.7V19.7999C61.5002 17.5999 61.2002 16.2 60.7002 15.7C60.1002 15.2 58.6002 14.9 56.2002 14.7V12.4999H77.0002V14.7C74.6002 14.9 73.2002 15.2 72.6002 15.7C72.0002 16.2 71.8002 17.5999 71.8002 19.7999V28.9999C71.8002 36.5999 74.9002 40.2999 81.1002 40.2999C87.4002 40.2999 90.5002 36.3999 90.5002 28.5999V25.0999C90.5002 21.5999 90.3002 19 89.9002 17.2C89.6002 15.6 87.5002 14.7999 83.7002 14.5999V12.3999H99.7002V14.4999Z" fill="black"/>
<path d="M139.9 34.7C139.2 38.5 138.5 41.4 137.8 43.4H104.2V41.2C106.9 41 108.5 40.7 109.1 40.2C109.7 39.7 110 38.3 110 36V19.7C110 17.4 109.7 16.1 109.2 15.6C108.7 15.1 107.2 14.8 104.8 14.7V12.5H136.3C136.4 14.8 136.7 17.4 136.9 20.3L134.1 20.4C133.4 18.7 132.6 17.4 131.8 16.7C130.9 15.7 128.7 15.1 125.4 15.1H122.4C121.3 15.1 120.7 15.2 120.5 15.4C120.3 15.6 120.2 16.2 120.2 17.1V25.9H124.7C126.9 25.9 128.3 25.7 129 25.2C129.6 24.8 130.1 23.8 130.4 22.3H133.2V32.3H130.4C130.1 30.8 129.6 29.9 129 29.5C128.3 29.1 126.9 28.9 124.7 28.9H120.2V35.5C120.2 38.1 120.6 39.6 121.5 40.1C122.4 40.5 124.4 40.7 127.3 40.7C130.5 40.7 132.7 40.2 133.9 39.1C134.8 38.4 135.9 36.9 137.2 34.6L139.9 34.7Z" fill="black"/>
<path d="M170.2 21.6C168.2 16.5 165.1 13.9 160.8 13.9C159.2 13.9 157.9 14.3 156.9 15.2C155.9 16 155.4 17 155.4 18.2C155.4 20.2 157.2 21.8 160.8 23L163.2 23.8C171 26.4 174.8 29.7 174.8 33.8C174.8 37 173.3 39.5 170.3 41.4C167.4 43.3 163.5 44.2 158.7 44.2C155 44.2 151.2 43.4 147.5 41.7C146.8 40.1 146.1 37.2 145.5 32.9L148 32.2C148.9 34.5 150.4 36.6 152.3 38.4C154.6 40.6 157.1 41.7 159.8 41.7C161.6 41.7 163.1 41.3 164.2 40.5C165.3 39.7 165.8 38.6 165.8 37.2C165.8 35.1 163.8 33.4 159.9 32.1L157.1 31.1C150.3 28.8 146.9 25.6 146.9 21.5C146.9 18.5 148.2 16 150.9 14.2C153.6 12.4 157.4 11.5 162.3 11.5C165.5 11.5 168.6 12.1 171.8 13.3C172.2 15.5 172.6 18.1 173 21.1L170.2 21.6Z" fill="black"/>
<path d="M205.8 21.6C203.8 16.5 200.7 13.9 196.4 13.9C194.8 13.9 193.5 14.3 192.5 15.2C191.5 16 191 17 191 18.2C191 20.2 192.8 21.8 196.4 23L198.8 23.8C206.6 26.4 210.4 29.7 210.4 33.8C210.4 37 208.9 39.5 205.9 41.4C203 43.3 199.1 44.2 194.3 44.2C190.6 44.2 186.8 43.4 183.1 41.7C182.4 40.1 181.7 37.2 181.1 32.9L183.6 32.2C184.5 34.5 186 36.6 187.9 38.4C190.2 40.6 192.7 41.7 195.4 41.7C197.2 41.7 198.7 41.3 199.8 40.5C200.9 39.7 201.4 38.6 201.4 37.2C201.4 35.1 199.4 33.4 195.5 32.1L192.7 31.1C185.9 28.8 182.5 25.6 182.5 21.5C182.5 18.5 183.8 16 186.5 14.2C189.2 12.4 193 11.5 197.9 11.5C201.1 11.5 204.2 12.1 207.4 13.3C207.8 15.5 208.2 18.1 208.6 21.1L205.8 21.6Z" fill="black"/>
</svg>
