<svg width="743" height="63" viewBox="0 0 743 63" fill="none" xmlns="http://www.w3.org/2000/svg">
<path d="M100.5 5.24888C97.0001 5.66978 94.5001 6.5116 93.2001 7.634C91.8001 8.7564 90.4001 11.1415 89.0001 14.9296C84.5001 25.5924 78.7001 41.1657 71.6001 61.5092H66.1001L48.9001 21.664H48.7001C41.9001 38.6403 36.6001 51.9688 32.9001 61.5092H27.4001C19.6001 39.2015 14.0001 23.4879 10.6001 14.3684C9.30011 10.8609 8.0001 8.61609 6.7001 7.49369C5.4001 6.37129 3.2001 5.66978 0.100098 5.24888V2.16231H31.2001V5.24888C27.4001 5.66978 25.1001 6.23101 24.3001 7.07281C24.0001 7.35341 23.9001 7.91462 23.9001 8.61612C23.9001 9.45792 24.1001 10.44 24.5001 11.843C28.6001 24.1894 32.2001 34.4313 35.2001 42.709H35.4001C41.7001 26.5745 46.7001 13.246 50.5001 2.58319H55.5001C61.4001 16.3326 67.3001 29.8014 73.1001 43.1299H73.3001C77.0001 33.1686 80.3001 23.067 83.2001 12.8251C83.6001 11.4221 83.8001 10.1594 83.8001 9.31762C83.8001 8.33552 83.6001 7.63402 83.2001 7.21312C82.3001 6.23102 79.7001 5.52952 75.6001 5.10862V2.022H100.3V5.24888H100.5Z" fill="black"/>
<path d="M113.7 16.6132C122.1 16.6132 128.9 18.7177 134.1 22.9267C139.1 26.9954 141.7 32.1865 141.7 38.3597C141.7 45.6553 138.9 51.4076 133.2 55.6166C128 59.545 121.4 61.5092 113.6 61.5092C104.8 61.5092 97.8002 59.2644 92.5002 54.6345C87.8002 50.5658 85.4001 45.515 85.4001 39.7627C85.4001 32.4671 88.4001 26.5745 94.4001 22.2252C99.7001 18.4371 106.1 16.4729 113.5 16.4729H113.7V16.6132ZM112.7 20.1207C109.3 20.1207 106.5 21.664 104.2 24.7506C101.7 28.1178 100.5 32.6074 100.5 38.0791C100.5 43.9717 101.8 48.8822 104.5 52.53C107.1 56.1778 110.4 58.0017 114.5 58.0017C122.4 58.0017 126.3 52.1091 126.3 40.3239C126.3 34.7119 125.2 30.082 122.9 26.2939C120.4 22.0849 117 19.9804 112.8 19.9804H112.7V20.1207Z" fill="black"/>
<path d="M190.9 61.0883H187C178 61.0883 172 59.1241 168.9 55.1957C167.1 53.0912 164.8 49.8643 162 45.0941C160.8 43.2702 159.2 42.4284 157 42.4284H156V50.5658C156 53.5121 156.4 55.336 157 56.0375C157.7 56.739 159.7 57.3002 163 57.4405V60.5271H135.5V57.4405C138.8 57.3002 140.8 56.8793 141.5 56.0375C142.3 55.336 142.8 53.5121 142.8 50.4255V27.4163C142.8 24.6103 142.4 22.7864 141.6 22.0849C140.9 21.3834 139 20.9625 135.9 20.8222V17.7356H164.3C170.5 17.7356 175.1 18.4371 178.2 19.8401C182 21.8043 183.9 24.7506 183.9 28.679C183.9 33.8701 180.3 37.5179 173.2 39.4821C175.4 42.8493 177.9 46.2165 180.8 49.5837C183.6 52.9509 185.6 55.0554 186.8 56.0375C188.2 57.1599 189.8 57.8614 191.5 58.2823L190.9 61.0883ZM158.4 39.0612C161.7 39.0612 164.3 38.5 166.1 37.3776C168.4 35.9746 169.5 33.5895 169.5 30.2223C169.5 27.1357 168.5 24.8909 166.5 23.2073C164.8 21.8043 162.6 21.1028 159.9 21.1028C157.3 21.1028 156 22.0849 156 24.0491V38.9209H158.4V39.0612Z" fill="black"/>
<path d="M210.5 17.8759C220.8 17.8759 228.5 19.8401 233.7 23.7685C238.2 27.1357 240.4 31.7656 240.4 37.6582C240.4 45.2344 237.1 51.127 230.5 55.0554C224.5 58.7032 216.4 60.5271 206.4 60.5271H182.5V57.4405C185.8 57.1599 187.9 56.739 188.7 56.0375C189.6 55.336 190 53.5121 190 50.7061V27.6969C190 24.7506 189.6 22.7864 188.8 22.0849C188.1 21.5237 186.3 21.1028 183.1 20.8222V17.7356H210.5V17.8759ZM203.5 50.2852C203.5 52.8106 203.9 54.4942 204.6 55.336C205.4 56.3181 206.9 56.739 209.1 56.739C214 56.739 217.8 55.1957 220.7 52.1091C223.7 48.8822 225.2 44.2523 225.2 38.5C225.2 32.7477 223.7 28.2581 220.6 25.1715C217.8 22.3655 213.9 21.1028 208.9 21.1028C206.5 21.1028 205 21.3834 204.3 21.9446C203.7 22.3655 203.5 23.6282 203.5 25.873V50.2852Z" fill="black"/>
<path d="M281.8 47.6195C281.1 50.8464 280.2 55.1957 278.9 60.5271H235.3V57.4405C238.8 57.1599 241 56.739 241.8 56.0375C242.6 55.336 243 53.5121 243 50.4255V27.8372C243 24.8909 242.6 22.9267 241.8 22.2252C241.1 21.5237 239.1 21.1028 235.8 20.9625V17.8759H264.2V20.9625C260.7 21.1028 258.6 21.5237 257.8 22.2252C257 23.067 256.5 24.8909 256.5 27.8372V50.7061C256.5 53.5121 257.1 55.336 258.3 56.0375C259.4 56.5987 261.9 56.8793 265.7 56.8793C269.5 56.8793 272.3 56.0375 273.9 54.4942C275 53.3718 276.4 50.8464 278.1 47.0583L281.8 47.6195Z" fill="black"/>
<path d="M321.3 48.6016C320.4 53.933 319.4 57.8614 318.5 60.5271H273.6V57.4405C277.2 57.1599 279.4 56.739 280.1 56.0375C280.9 55.336 281.4 53.3718 281.4 50.2852V27.8372C281.4 24.7506 281 22.7864 280.3 22.2252C279.6 21.5237 277.7 21.1028 274.4 20.9625V17.8759H316.4C316.6 21.1028 316.9 24.6103 317.2 28.5387L313.5 28.679C312.5 26.2939 311.5 24.6103 310.5 23.6282C309.2 22.2252 306.4 21.5237 302 21.5237H298C296.6 21.5237 295.7 21.664 295.4 21.9446C295.1 22.2252 295 23.067 295 24.3297V36.3955H300.9C303.8 36.3955 305.7 36.1149 306.6 35.5537C307.4 34.9925 308.1 33.7298 308.5 31.485H312.2V45.3747H308.5C308.1 43.2702 307.5 42.0075 306.6 41.4463C305.7 40.8851 303.8 40.6045 300.9 40.6045H295V49.724C295 53.3718 295.6 55.4763 296.8 56.0375C298.1 56.5987 300.7 56.8793 304.6 56.8793C308.8 56.8793 311.8 56.1778 313.4 54.6345C314.6 53.6524 316 51.5479 317.8 48.4613L321.3 48.6016Z" fill="black"/>
<path d="M360.4 0.899597C370.1 0.899597 378.2 3.70559 384.8 9.17729C391.6 14.7893 395 21.9446 395 30.7835C395 40.1836 391.5 47.9001 384.4 53.6524C377.6 59.2644 369.2 62.0704 359 62.0704C348.6 62.0704 340 59.1241 333.3 53.2315C326.7 47.4792 323.4 40.3239 323.4 31.6253C323.4 23.3476 326.5 16.3326 332.8 10.5803C339.7 4.26679 348.8 1.18017 360.2 1.18017H360.4V0.899597ZM358.3 4.54736C352.9 4.54736 348.4 6.79219 344.9 11.2818C341.3 15.9117 339.4 22.0849 339.4 29.6611C339.4 37.6582 341.3 44.2523 345.1 49.5837C349.1 55.1957 354.4 58.0017 360.9 58.0017C366.1 58.0017 370.4 55.8972 373.6 51.6882C377.1 47.1986 378.9 41.0254 378.9 33.0283C378.9 24.1894 377 17.1744 373.2 11.9833C369.4 7.07279 364.5 4.54736 358.3 4.54736Z" fill="black"/>
<path d="M429.6 29.3805C428.5 26.7148 427.5 24.8909 426.7 23.7685C425.3 22.2252 422.6 21.3834 418.5 21.3834H413.4C412 21.5237 411.2 21.664 410.9 21.8043C410.7 21.9446 410.5 22.6461 410.5 23.9088V37.5179H417.2C420.8 37.5179 423.1 37.2373 424 36.6761C424.9 36.1149 425.7 34.7119 426.2 32.4671H429.8V46.918H426.2C425.8 44.3926 425.1 42.8493 424.1 42.2881C423.2 41.8672 420.9 41.5866 417.2 41.5866H410.6V50.7061C410.6 53.5121 411 55.336 411.9 56.0375C412.8 56.739 415 57.1599 418.7 57.4405V60.5271H390V57.4405C393.1 57.3002 395 56.8793 395.7 56.1778C396.5 55.4763 396.9 53.6524 396.9 50.8464V27.6969C396.9 24.7506 396.5 22.7864 395.7 22.0849C395 21.3834 393.1 20.9625 390 20.8222V17.7356H432.3C432.5 21.2431 432.9 24.8909 433.3 28.8193L429.6 29.3805Z" fill="black"/>
<path d="M468.2 2.16231C481.9 2.16231 491.9 4.82802 498.3 10.0191C504.5 15.0699 507.5 21.3834 507.5 29.0999C507.5 39.3418 503.1 47.3389 494.4 53.2315C486.7 58.142 476.1 60.6674 462.5 60.6674H435.6V57.5808C439.8 57.3002 442.4 56.739 443.4 55.7569C444.4 54.7748 444.9 52.3897 444.9 48.6016V14.2281C444.9 10.44 444.4 8.05491 443.5 7.07281C442.7 6.23101 440.3 5.52948 436.5 5.24888V2.16231H468.2ZM459 47.9001C459 51.2673 459.6 53.5121 460.8 54.6345C462 55.8972 464.4 56.5987 468 56.5987C475.1 56.5987 480.8 54.3539 485.1 49.724C489.5 44.9538 491.7 38.6403 491.7 30.7835C491.7 22.2252 489.1 15.7714 483.9 11.4221C479.4 7.77432 473.7 5.81012 466.7 5.81012C463.3 5.81012 461.1 6.23101 460.1 7.07281C459.3 7.77431 458.9 9.31761 458.9 11.9833V47.9001H459Z" fill="black"/>
<path d="M557.9 61.0883H554C545 61.0883 539 59.1241 535.9 55.1957C534.1 53.0912 531.8 49.8643 529 45.0941C527.8 43.2702 526.2 42.4284 524 42.4284H522.9V50.5658C522.9 53.5121 523.2 55.336 523.9 56.0375C524.6 56.739 526.6 57.3002 529.9 57.4405V60.5271H502.4V57.4405C505.7 57.3002 507.7 56.8793 508.4 56.0375C509.2 55.336 509.7 53.5121 509.7 50.4255V27.4163C509.7 24.6103 509.3 22.7864 508.5 22.0849C507.8 21.3834 505.9 20.9625 502.8 20.8222V17.7356H531.2C537.4 17.7356 542 18.4371 545.1 19.8401C548.9 21.8043 550.8 24.7506 550.8 28.679C550.8 33.8701 547.2 37.5179 540.1 39.4821C542.3 42.8493 544.8 46.2165 547.7 49.5837C550.5 52.9509 552.5 55.0554 553.7 56.0375C555.1 57.1599 556.7 57.8614 558.4 58.2823L557.9 61.0883ZM525.3 39.0612C528.6 39.0612 531.2 38.5 533 37.3776C535.3 35.9746 536.4 33.5895 536.4 30.2223C536.4 27.1357 535.4 24.8909 533.4 23.2073C531.7 21.8043 529.5 21.1028 526.7 21.1028C524.1 21.1028 522.9 22.0849 522.9 24.0491V38.9209H525.3V39.0612Z" fill="black"/>
<path d="M596.8 48.6016C595.9 53.933 594.9 57.8614 594 60.5271H549.1V57.4405C552.7 57.1599 554.9 56.739 555.6 56.0375C556.4 55.336 556.9 53.3718 556.9 50.2852V27.8372C556.9 24.7506 556.5 22.7864 555.8 22.2252C555.1 21.5237 553.2 21.1028 549.9 20.9625V17.8759H591.9C592.1 21.1028 592.4 24.6103 592.7 28.5387L589 28.679C588 26.2939 587 24.6103 586 23.6282C584.7 22.2252 581.9 21.5237 577.5 21.5237H573.5C572.1 21.5237 571.2 21.664 570.9 21.9446C570.6 22.2252 570.5 23.067 570.5 24.3297V36.3955H576.5C579.4 36.3955 581.3 36.1149 582.2 35.5537C583 34.9925 583.7 33.7298 584.1 31.485H587.8V45.3747H584C583.6 43.2702 582.9 42.0075 582.1 41.4463C581.2 40.8851 579.3 40.6045 576.4 40.6045H570.4V49.724C570.4 53.3718 571 55.4763 572.2 56.0375C573.5 56.5987 576.1 56.8793 580 56.8793C584.2 56.8793 587.2 56.1778 588.8 54.6345C590 53.6524 591.4 51.5479 593.2 48.4613L596.8 48.6016Z" fill="black"/>
<path d="M620.7 60.5271V57.4405L622.6 57.3002C624 57.0196 624.9 56.739 625.2 56.1778C625.3 56.0375 625.3 55.7569 625.3 55.6166C625.3 55.0554 625 54.2136 624.5 53.0912L622.3 48.1807H605.6C605 49.4434 604.3 51.127 603.4 53.5121C603.2 54.0733 603 54.6345 603 55.0554C603 55.6166 603.2 56.0375 603.5 56.3181C603.9 56.739 604.9 57.1599 606.3 57.4405L608.9 57.7211V60.8077H588.7V57.7211C591.3 57.4405 593.2 56.8793 594.3 56.3181C595.7 55.4763 597 53.6524 598.3 51.2673L615.2 18.0162L621.3 17.1744L638.7 52.3897C640.3 55.7569 643.3 57.5808 647.7 57.8614V60.948H620.7V60.5271ZM614.1 28.8193H613.9L607.4 43.6911H620.4L614.1 28.8193Z" fill="black"/>
<path d="M709.1 20.9625C705.5 21.2431 703.3 21.664 702.5 22.3655C701.8 23.067 701.5 24.6103 701.5 26.9954V27.8372L702.1 50.7061C702.1 53.6524 702.5 55.4763 703.1 56.0375C703.8 56.739 705.9 57.1599 709.4 57.4405V60.5271H681.7V57.4405C685.1 57.3002 687.1 56.8793 687.9 56.0375C688.6 55.4763 688.9 53.6524 689 50.7061L689.4 24.8909H689.1L672 59.8256H668.4L653.4 25.7327H653.2L652.3 41.8672C652.1 46.0762 652 49.3031 652 51.5479V53.2315C652.1 54.7748 652.7 55.8972 653.8 56.4584C654.8 57.1599 656.7 57.4405 659.3 57.5808V60.6674H639.5V57.5808C643.2 57.4405 645.4 55.8972 646.2 52.9509C646.5 51.4076 646.9 48.0404 647.5 42.709L648.8 29.3805C648.9 28.2581 649 27.276 649 26.2939C649 24.47 648.7 23.2073 648.2 22.6461C647.5 21.8043 645.5 21.2431 642.2 20.9625V17.8759H662.2L675 42.9896L688.8 17.8759H709V20.9625H709.1Z" fill="black"/>
<path d="M736.7 30.6432C734 23.6282 729.9 19.9804 724.2 19.9804C722.1 19.9804 720.3 20.5416 718.9 21.8043C717.6 22.9267 716.9 24.3297 716.9 25.873C716.9 28.5387 719.3 30.7835 724 32.4671L727.2 33.5895C737.6 37.097 742.7 41.7269 742.7 47.3389C742.7 51.6882 740.7 55.1957 736.8 57.7211C732.9 60.2465 727.7 61.6495 721.3 61.6495C716.4 61.6495 711.4 60.5271 706.3 58.2823C705.3 56.1778 704.4 52.1091 703.6 46.2165L707 45.3747C708.3 48.6016 710.1 51.4076 712.7 53.933C715.8 56.8793 719.1 58.4226 722.6 58.4226C725 58.4226 727 57.8614 728.4 56.739C729.8 55.6166 730.6 54.0733 730.6 52.2494C730.6 49.4434 728 47.0583 722.8 45.2344L719 43.8314C709.9 40.6045 705.4 36.2552 705.4 30.6432C705.4 26.4342 707.2 23.067 710.7 20.5416C714.3 18.0162 719.4 16.7535 725.9 16.7535C730.1 16.7535 734.4 17.5953 738.6 19.1386C739.2 22.2252 739.7 25.7327 740.2 29.8014L736.7 30.6432Z" fill="black"/>
</svg>
