<svg width="611" height="47" viewBox="0 0 611 47" fill="none" xmlns="http://www.w3.org/2000/svg">
<path d="M377.2 0.100098C388.9 0.100098 397.4 2.10011 402.8 6.30011C408 10.3001 410.6 15.1001 410.6 21.1001C410.6 29.1001 406.9 35.3001 399.4 40.0001C392.9 43.9001 383.8 45.8001 372.3 45.8001H349.3V43.4001C352.9 43.3001 355 42.8001 355.9 41.9001C356.8 41.0001 357.1 39.3001 357.1 36.4001V9.6001C357.1 6.6001 356.7 4.7001 355.9 4.1001C355.2 3.5001 353.2 3.0001 349.9 2.6001V0.200134H377.2V0.100098ZM369.5 35.7001C369.5 38.3001 370 40.1001 371 40.9001C372.1 41.9001 374.1 42.4001 377.1 42.4001C383.1 42.4001 388.1 40.8001 391.7 37.0001C395.4 33.3001 397.3 28.3001 397.3 22.3001C397.3 15.6001 395.1 10.6001 390.7 7.20013C386.8 4.30013 382 2.80011 376.1 2.80011C373.1 2.80011 371.2 3.20011 370.5 3.80011C369.9 4.30011 369.5 5.40013 369.5 7.70013V35.7001Z" fill="black"/>
<path d="M453.6 46H450.4C442.7 46 437.6 44.5 435 41.5C433.5 39.9 431.5 37.3 429.2 33.7C428.2 32.2 426.7 31.7 425 31.7H424V38C424 40.4 424.4 41.7 424.9 42.4C425.5 42.9 427.3 43.4 430 43.5V45.9H406.6V43.5C409.3 43.4 411.1 43 411.7 42.4C412.4 41.9 412.8 40.4 412.8 38V20.1C412.8 18 412.4 16.4 411.8 15.9C411.2 15.4 409.6 15 406.9 14.9V12.5H431C436.2 12.5 440.2 13 442.8 14.1C446 15.6 447.7 18 447.7 20.9C447.7 24.9 444.7 27.7 438.6 29.2C440.5 31.8 442.6 34.4 445.1 37C447.5 39.6 449.2 41.4 450.2 42C451.4 42.9 452.7 43.5 454.2 43.6L453.6 46ZM425.9 28.8C428.8 28.8 430.9 28.3 432.4 27.4C434.4 26.3 435.4 24.4 435.4 21.9C435.4 19.5 434.5 17.7 432.9 16.4C431.4 15.3 429.5 14.8 427.2 14.8C425 14.8 424 15.7 424 17.2V28.8H425.9Z" fill="black"/>
<path d="M486.8 36.3C485.9 40.5 485.2 43.5 484.4 45.6H446.2V43.2001C449.3 43.1001 451.1 42.7 451.8 42.1C452.5 41.6 452.9 40.1 452.9 37.6V20.1C452.9 17.7 452.5 16.1001 451.9 15.7001C451.3 15.2001 449.7 14.8001 446.9 14.7001V12.3H482.6C482.7 14.8 483 17.5 483.3 20.6L480.1 20.7001C479.2 18.8001 478.4 17.6001 477.6 16.7001C476.5 15.6001 474.1 15.1 470.4 15.1H467C465.8 15.1 465 15.2001 464.8 15.5001C464.6 15.6001 464.4 16.4001 464.4 17.4001V26.7001H469.5C472 26.7001 473.6 26.6 474.4 26.1C475.1 25.6 475.6 24.6001 476 23.0001H479.2V33.8H476C475.6 32.2 475.1 31.2 474.4 30.8C473.7 30.3 472 30.2001 469.5 30.2001H464.3V37.4001C464.3 40.3001 464.8 41.9 465.8 42.3C466.9 42.8 469 42.9001 472.4 42.9001C476 42.9001 478.5 42.4 479.9 41.3C480.9 40.4 482.1 38.9001 483.6 36.4001L486.8 36.3Z" fill="black"/>
<path d="M507.1 45.5001V43.1001L508.7 43.0001C509.9 42.9001 510.7 42.5001 510.9 42.1001C511 42.0001 511 41.7001 511 41.6001C511 41.1001 510.8 40.5001 510.4 39.6001L508.5 35.7001H494.2C493.7 36.7001 493.1 38.1001 492.3 39.9001C492.2 40.4001 491.9 40.8001 491.9 41.0001C491.9 41.5001 492 41.9001 492.3 42.0001C492.7 42.4001 493.4 42.6001 494.7 42.9001L496.9 43.0001V45.4001H479.7V43.2001C481.9 43.1001 483.6 42.6001 484.6 42.1001C485.8 41.5001 487 40.1001 488 38.1001L502.3 12.2001L507.5 11.6001L522.3 39.0001C523.7 41.6001 526.3 43.0001 530 43.4001V45.8001H507V45.5001H507.1ZM501.5 20.7001H501.4L495.8 32.3001H506.9L501.5 20.7001Z" fill="black"/>
<path d="M582.3 14.8C579.2 14.9 577.3 15.3 576.7 15.9C576.1 16.4 575.8 17.5 575.8 19.6V20.2L576.3 38.1C576.3 40.5 576.7 41.8 577.2 42.3C577.8 42.8 579.7 43.2 582.6 43.4V45.8H559V43.4C561.9 43.3 563.6 42.9 564.2 42.3C564.8 41.8 565.1 40.4 565.2 38.1L565.6 18.1H565.2L550.6 45.1H547.6L534.8 18.2H534.7L533.8 30.8C533.7 34.2 533.4 36.6 533.4 38.3V39.7C533.5 40.8 534 41.7 534.9 42.2C535.8 42.7 537.4 43.1 539.6 43.1V45.5H522.8V43C526 42.9 527.9 41.6 528.5 39.3C528.7 38.2 529.1 35.4 529.6 31.3L530.7 21C530.8 20.1 530.8 19.4 530.8 18.6C530.8 17.1 530.6 16.2 530.1 15.7C529.5 15.1 527.9 14.6 525 14.3V12H542.2L553.2 31.5L565 12H582.2V14.6H582.3V14.8Z" fill="black"/>
<path d="M605.8 22.2001C603.6 16.7001 600.1 13.9001 595.1 13.9001C593.4 13.9001 591.9 14.4001 590.6 15.4001C589.5 16.3001 589 17.4001 589 18.5001C589 20.5001 591 22.4001 595.1 23.7001L597.8 24.6001C606.6 27.2001 611 30.9001 611 35.3001C611 38.7001 609.3 41.5001 605.9 43.3001C602.5 45.3001 598.2 46.3001 592.7 46.3001C588.5 46.3001 584.2 45.4001 579.9 43.7001C579 42.1001 578.3 38.8001 577.5 34.4001L580.4 33.8001C581.5 36.3001 583.1 38.5001 585.3 40.5001C588 42.9001 590.8 44.0001 593.8 44.0001C595.8 44.0001 597.5 43.5001 598.8 42.6001C600 41.7001 600.7 40.6001 600.7 39.1001C600.7 37.0001 598.5 35.1001 594 33.6001L590.8 32.5001C583.1 30.0001 579.2 26.7001 579.2 22.2001C579.2 18.8001 580.7 16.4001 583.8 14.4001C586.9 12.4001 591.3 11.4001 596.7 11.4001C600.3 11.4001 603.9 12.0001 607.4 13.3001C607.9 15.7001 608.3 18.5001 608.8 21.6001L605.8 22.2001Z" fill="black"/>
<path d="M269.4 0.300049C277.5 0.300049 284.2 2.20006 289.9 6.50006C295.6 10.8001 298.5 16.2001 298.5 22.7001C298.5 30.0001 295.5 35.6001 289.6 39.9001C283.9 44.2001 276.9 46.1 268.3 46.1C259.7 46.1 252.4 43.9001 247 39.4001C241.6 35.1001 238.9 29.7001 238.9 23.0001C238.9 16.8001 241.6 11.4 246.7 7.10004C252.2 2.40004 259.7 0.300049 269.4 0.300049ZM267.6 3.00006C263 3.00006 259.5 4.60004 256.3 8.10004C253.3 11.6 251.7 16.2 251.7 22.1C251.7 28 253.3 32.9001 256.3 37.2001C259.5 41.5001 264.1 43.7001 269.5 43.7001C273.8 43.7001 277.3 42.1 280 39.1C283 35.9 284.6 31 284.6 25.1C284.6 18.4 283 13.2001 279.8 9.20007C277 4.90007 272.9 3.00006 267.6 3.00006Z" fill="black"/>
<path d="M327.4 21.5999C326.6 19.6999 325.8 18.3999 325 17.2999C323.9 16.1999 321.8 15.6999 318.3 15.6999H314C312.9 15.9999 312.1 15.9999 312.1 15.9999C311.8 16.2999 311.8 16.4999 311.8 17.5999V27.9999H317.2C320.2 27.9999 322 27.6999 322.9 27.4999C323.7 26.9999 324.5 25.8999 324.8 24.2999H327.8V34.9999H324.8C324.5 33.0999 323.7 31.9999 323.2 31.4999C322.4 31.1999 320.5 30.9999 317.3 30.9999H311.9V37.6999C311.9 39.5999 312.2 40.8999 313 41.6999C313.8 42.1999 315.7 42.4999 318.7 42.7999V45.1999H294.7V42.7999C297.4 42.4999 299 42.2999 299.5 41.6999C300 41.1999 300.6 39.7999 300.6 37.6999V20.1999C300.6 17.7999 300.3 16.3999 299.5 15.8999C299 15.3999 297.3 15.0999 294.7 14.7999V12.3999H330C330.3 15.0999 330.5 17.7999 330.8 20.7999L327.4 21.5999Z" fill="black"/>
<path d="M54.4004 26.4999C52.3004 26.7999 51.0004 27.3 50.6004 27.7C50.1004 28.3 49.9004 29.6999 49.9004 31.7999V37.0999C49.9004 39.8999 50.1004 42.1 50.4004 43.4C42.3004 45.1 36.2004 45.9 31.9004 45.9C22.5004 45.9 14.9004 43.7999 9.40039 39.7999C3.70039 35.6999 0.900391 30.2999 0.900391 23.5999C0.900391 16.2999 4.10039 10.3999 10.6004 6.09991C16.5004 2.19991 24.0004 0.199951 33.1004 0.199951C36.8004 0.199951 42.2004 0.799915 49.0004 2.09991C49.2004 4.49991 49.6004 8.19993 50.3004 13.2999L47.3004 13.7999C45.3004 6.69993 40.2004 2.99994 31.5004 2.99994C26.4004 2.99994 22.2004 4.79995 18.8004 8.19995C15.2004 11.8 13.3004 16.5999 13.3004 22.4999C13.3004 28.0999 14.9004 32.7999 18.1004 36.7999C21.6004 41.0999 26.6004 43.2999 32.8004 43.2999C34.9004 43.2999 36.4004 42.9999 37.3004 42.4999C38.5004 41.8999 39.2004 40.5999 39.2004 38.7999V32.4C39.2004 30 38.8004 28.5999 37.9004 27.9999C37.0004 27.3999 34.5004 26.8999 30.2004 26.5999V24.2999H54.6004V26.7H54.4004V26.4999Z" fill="black"/>
<path d="M104 15.3C100.8 15.4 99.0004 16.3 98.7004 18C98.4004 20.1 98.2004 22.8 98.2004 26.1V29.8C98.2004 35.7 96.6004 39.9 93.5004 42.5C90.5004 44.9 86.6004 46.1 81.6004 46.1C76.9004 46.1 73.0004 45.3 70.0004 43.5C66.3004 41.3 64.4004 37.5 64.4004 32V20.7C64.4004 18.4 64.1004 17 63.6004 16.5C63.0004 16 61.4004 15.7 58.9004 15.5V13.2H80.4004V15.5C77.9004 15.7 76.5004 16 75.9004 16.5C75.3004 17 75.1004 18.5 75.1004 20.7V30.2C75.1004 38.1 78.3004 41.9 84.7004 41.9C91.2004 41.9 94.4004 37.9 94.4004 29.8V26.2C94.4004 22.6 94.2004 19.9 93.8004 18C93.5004 16.3 91.3004 15.5 87.4004 15.3V13H104V15.3Z" fill="black"/>
<path d="M145.501 36.1998C144.801 40.0998 144.101 43.0998 143.301 45.1998H108.601V42.8998C111.401 42.6998 113.001 42.3998 113.701 41.8998C114.301 41.3998 114.601 39.8998 114.601 37.5998V20.6998C114.601 18.2998 114.301 16.9998 113.801 16.4998C113.301 15.9998 111.701 15.6998 109.301 15.5998V13.2998H141.901C142.001 15.6998 142.301 18.3998 142.501 21.3998L139.601 21.4998C138.901 19.6998 138.001 18.3998 137.201 17.6998C136.301 16.6998 134.001 15.9998 130.601 15.9998H127.501C126.401 15.9998 125.701 16.0998 125.501 16.2998C125.301 16.4998 125.201 17.0998 125.201 18.0998V27.1998H129.901C132.201 27.1998 133.601 26.9998 134.301 26.4998C134.901 26.0998 135.401 25.0998 135.701 23.4998H138.601V33.7998H135.701C135.401 32.1998 134.901 31.2998 134.301 30.8998C133.601 30.4998 132.101 30.2998 129.901 30.2998H125.201V37.0998C125.201 39.7998 125.601 41.2998 126.501 41.8998C127.401 42.2998 129.501 42.4998 132.501 42.4998C135.801 42.4998 138.101 41.9998 139.301 40.7998C140.201 40.0998 141.401 38.4998 142.701 36.0998L145.501 36.1998Z" fill="black"/>
<path d="M176.8 22.5999C174.7 17.2999 171.5 14.5999 167.1 14.5999C165.4 14.5999 164.1 15 163.1 15.9C162.1 16.7 161.5 17.7999 161.5 18.9999C161.5 21.0999 163.4 22.6999 167.1 23.9999L169.6 24.7999C177.7 27.4999 181.6 30.8999 181.6 35.0999C181.6 38.3999 180 40.9999 176.9 42.9999C173.9 44.9999 169.9 45.9 164.9 45.9C161.1 45.9 157.1 45.0999 153.3 43.2999C152.6 41.5999 151.9 38.6 151.2 34.2L153.8 33.4999C154.7 35.8999 156.3 38 158.2 39.9C160.6 42.2 163.2 43.2999 166 43.2999C167.9 43.2999 169.4 42.8999 170.5 42.0999C171.6 41.2999 172.2 40.1 172.2 38.7C172.2 36.5 170.1 34.8 166.1 33.4L163.2 32.4C156.2 30 152.7 26.6999 152.7 22.4999C152.7 19.3999 154 16.7999 156.8 14.9999C159.6 13.0999 163.5 12.2 168.6 12.2C171.9 12.2 175.1 12.7999 178.4 14.0999C178.8 16.3999 179.2 19.1 179.6 22.2L176.8 22.5999Z" fill="black"/>
<path d="M213.701 22.5999C211.601 17.2999 208.401 14.5999 204.001 14.5999C202.301 14.5999 201.001 15 200.001 15.9C199.001 16.7 198.401 17.7999 198.401 18.9999C198.401 21.0999 200.301 22.6999 204.001 23.9999L206.501 24.7999C214.601 27.4999 218.501 30.8999 218.501 35.0999C218.501 38.3999 216.901 40.9999 213.801 42.9999C210.801 44.9999 206.801 45.9 201.801 45.9C198.001 45.9 194.001 45.0999 190.201 43.2999C189.501 41.5999 188.801 38.6 188.101 34.2L190.701 33.4999C191.601 35.8999 193.201 38 195.101 39.9C197.501 42.2 200.101 43.2999 202.901 43.2999C204.801 43.2999 206.301 42.8999 207.401 42.0999C208.501 41.2999 209.101 40.1 209.101 38.7C209.101 36.5 207.001 34.8 203.001 33.4L200.101 32.4C193.101 30 189.601 26.6999 189.601 22.4999C189.601 19.3999 190.901 16.7999 193.701 14.9999C196.501 13.0999 200.401 12.2 205.501 12.2C208.801 12.2 212.001 12.7999 215.301 14.0999C215.701 16.3999 216.101 19.1 216.501 22.2L213.701 22.5999Z" fill="black"/>
</svg>
